<svg xmlns="http://www.w3.org/2000/svg" width="48" height="48"><path fill="#ede7f6" d="M24 5L4 16.89V41h40V16.89L24 5z"/><path fill="#455a64" d="M45 20.048L24 8 3 20.048V17L24 5l21 12v3.048z"/><path fill="#b39ddb" d="M4 40h40v2H4v-2z"/><path fill="#2196f3" d="M37.49 26.27a4.486 4.486 0 01-2.71 4.18l-4.15 1.78-1.59.68a1.108 1.108 0 01-1.46-.58c-.24-.57.02-1.22.58-1.46l3.73-1.6 2.01-.86c.54-.23.95-.66 1.18-1.17.53-1.21-.21-2.24-1.53-2.24-.69 0-1.34.43-1.55 1.06-.04.11-.06.23-.07.35-.04.58-.52 1.03-1.11 1.03-.61 0-1.11-.49-1.11-1.11 0-1.47.97-2.72 2.29-3.16.33-.11.68-.17 1.04-.17h1.05c1.83 0 3.37 1.44 3.4 3.27z"/><path fill="#29b6f6" d="M32 22.25v5.83c0 .41-.03.81-.11 1.19a6.373 6.373 0 01-1.26 2.96c-.21.28-.44.54-.69.77-1.31 1.27-3.13 2-5.06 2h-3.76c-1.93 0-3.75-.73-5.06-2C14.8 31.8 14 30.09 14 28.08v-5.83c0-.69.53-1.25 1.19-1.25h15.62c.66 0 1.19.56 1.19 1.25z"/><path fill="#2962ff" d="M33 33c0 2.209-2.211 4-4.421 4H17.421C15.211 37 13 35.209 13 33h20z"/><path fill="#bcaaa4" d="M24 21h-2c0-1.414.747-2.162 1.293-2.707.49-.49.707-.731.707-1.293s-.217-.803-.707-1.293l1.414-1.414C25.253 14.838 26 15.586 26 17s-.747 2.162-1.293 2.707c-.49.49-.707.731-.707 1.293zM19 21h-2c0-1.414.747-2.162 1.293-2.707.49-.49.707-.731.707-1.293s-.217-.803-.707-1.293l1.414-1.414C20.253 14.838 21 15.586 21 17s-.747 2.162-1.293 2.707c-.49.49-.707.731-.707 1.293zM29 21h-2c0-1.414.747-2.162 1.293-2.707.49-.49.707-.731.707-1.293s-.217-.803-.707-1.293l1.414-1.414C30.253 14.838 31 15.586 31 17s-.747 2.162-1.293 2.707c-.49.49-.707.731-.707 1.293z"/></svg>